solid OpenSCAD_Model
  facet normal -1 0 0
    outer loop
      vertex -31 -20 -1.5
      vertex -31 -20 1.5
      vertex -31 20 -1.5
    endloop
  endfacet
  facet normal -1 0 0
    outer loop
      vertex -31 20 -1.5
      vertex -31 -20 1.5
      vertex -31 20 1.5
    endloop
  endfacet
  facet normal 0 -1 0
    outer loop
      vertex -31 -20 1.5
      vertex -31 -20 -1.5
      vertex 31 -20 -1.5
    endloop
  endfacet
  facet normal 0 -1 0
    outer loop
      vertex 31 -20 1.5
      vertex -31 -20 1.5
      vertex 31 -20 -1.5
    endloop
  endfacet
  facet normal 0 0 -1
    outer loop
      vertex -31 -20 -1.5
      vertex -31 20 -1.5
      vertex 31 -20 -1.5
    endloop
  endfacet
  facet normal 0 0 -1
    outer loop
      vertex -8 17.8 -1.5
      vertex -31 20 -1.5
      vertex -8 20 -1.5
    endloop
  endfacet
  facet normal 0 0 -1
    outer loop
      vertex -12 9 -1.5
      vertex -31 20 -1.5
      vertex -8 17.8 -1.5
    endloop
  endfacet
  facet normal 0 0 -1
    outer loop
      vertex 31 -20 -1.5
      vertex -31 20 -1.5
      vertex -12 9 -1.5
    endloop
  endfacet
  facet normal 0 0 -1
    outer loop
      vertex 31 -20 -1.5
      vertex -12 9 -1.5
      vertex -8 9 -1.5
    endloop
  endfacet
  facet normal 0 0 -1
    outer loop
      vertex 31 -20 -1.5
      vertex 8 9 -1.5
      vertex 12 9 -1.5
    endloop
  endfacet
  facet normal 0 0 -1
    outer loop
      vertex 12 9 -1.5
      vertex 8 17.8 -1.5
      vertex 31 -20 -1.5
    endloop
  endfacet
  facet normal 0 0 -1
    outer loop
      vertex 31 -20 -1.5
      vertex 8 17.8 -1.5
      vertex 8 20 -1.5
    endloop
  endfacet
  facet normal 0 0 -1
    outer loop
      vertex 31 -20 -1.5
      vertex 8 20 -1.5
      vertex 31 20 -1.5
    endloop
  endfacet
  facet normal 0 0 -1
    outer loop
      vertex 8 9 -1.5
      vertex 31 -20 -1.5
      vertex -8 9 -1.5
    endloop
  endfacet
  facet normal 0 1 0
    outer loop
      vertex -31 20 -1.5
      vertex -31 20 1.5
      vertex -8 20 -1.5
    endloop
  endfacet
  facet normal 0 1 0
    outer loop
      vertex -8 20 -1.5
      vertex -31 20 1.5
      vertex -23.5 20 1.5
    endloop
  endfacet
  facet normal 0 1 0
    outer loop
      vertex -8 20 -1.5
      vertex -23.5 20 1.5
      vertex -23.5 20 10
    endloop
  endfacet
  facet normal 0 1 0
    outer loop
      vertex -8 20 -1.5
      vertex -23.5 20 10
      vertex -8 20 10
    endloop
  endfacet
  facet normal 0 0 1
    outer loop
      vertex -23.5 3 1.5
      vertex -31 -20 1.5
      vertex 31 -20 1.5
    endloop
  endfacet
  facet normal 0 0 1
    outer loop
      vertex -23.5 3 1.5
      vertex -23.5 20 1.5
      vertex -31 20 1.5
    endloop
  endfacet
  facet normal 0 0 1
    outer loop
      vertex 31 20 1.5
      vertex 23.5 20 1.5
      vertex 31 -20 1.5
    endloop
  endfacet
  facet normal 0 0 1
    outer loop
      vertex 23.5 20 1.5
      vertex 23.5 3 1.5
      vertex 31 -20 1.5
    endloop
  endfacet
  facet normal 0 0 1
    outer loop
      vertex -31 20 1.5
      vertex -31 -20 1.5
      vertex -23.5 3 1.5
    endloop
  endfacet
  facet normal 0 0 1
    outer loop
      vertex 23.5 3 1.5
      vertex -23.5 3 1.5
      vertex 31 -20 1.5
    endloop
  endfacet
  facet normal 1 0 0
    outer loop
      vertex 31 -20 1.5
      vertex 31 -20 -1.5
      vertex 31 20 -1.5
    endloop
  endfacet
  facet normal 1 0 0
    outer loop
      vertex 31 20 1.5
      vertex 31 -20 1.5
      vertex 31 20 -1.5
    endloop
  endfacet
  facet normal 0 1 0
    outer loop
      vertex 31 20 1.5
      vertex 31 20 -1.5
      vertex 23.5 20 1.5
    endloop
  endfacet
  facet normal 0 1 0
    outer loop
      vertex 8 20 -1.5
      vertex 8 20 10
      vertex 23.5 20 1.5
    endloop
  endfacet
  facet normal 0 1 0
    outer loop
      vertex 8 20 -1.5
      vertex 23.5 20 1.5
      vertex 31 20 -1.5
    endloop
  endfacet
  facet normal 0 1 0
    outer loop
      vertex 23.5 20 1.5
      vertex 8 20 10
      vertex 23.5 20 10
    endloop
  endfacet
  facet normal -1 0 0
    outer loop
      vertex 8 20 10
      vertex 8 20 -1.5
      vertex 8 17.8 10
    endloop
  endfacet
  facet normal -1 0 0
    outer loop
      vertex 8 17.8 10
      vertex 8 20 -1.5
      vertex 8 17.8 -1.5
    endloop
  endfacet
  facet normal -0.910366 -0.413803 9.18827e-17
    outer loop
      vertex 12 9 5
      vertex 10.6364 12 5
      vertex 12 9 -1.5
    endloop
  endfacet
  facet normal -0.910366 -0.413803 9.18827e-17
    outer loop
      vertex 8 17.8 10
      vertex 10.6364 12 5
      vertex 10.6364 12 10
    endloop
  endfacet
  facet normal -0.910366 -0.413803 9.18827e-17
    outer loop
      vertex 12 9 -1.5
      vertex 10.6364 12 5
      vertex 8 17.8 10
    endloop
  endfacet
  facet normal -0.910366 -0.413803 9.18827e-17
    outer loop
      vertex 12 9 -1.5
      vertex 8 17.8 10
      vertex 8 17.8 -1.5
    endloop
  endfacet
  facet normal 0 1 -2.22045e-16
    outer loop
      vertex 12 9 5
      vertex 12 9 -1.5
      vertex 8 9 5
    endloop
  endfacet
  facet normal 0 1 -2.22045e-16
    outer loop
      vertex 8 9 5
      vertex 12 9 -1.5
      vertex 8 9 -1.5
    endloop
  endfacet
  facet normal 0 1 0
    outer loop
      vertex 8 9 5
      vertex 8 9 -1.5
      vertex -8 9 5
    endloop
  endfacet
  facet normal 0 1 0
    outer loop
      vertex -8 9 5
      vertex 8 9 -1.5
      vertex -8 9 -1.5
    endloop
  endfacet
  facet normal -2.71926e-32 1 2.22045e-16
    outer loop
      vertex -8 9 -1.5
      vertex -12 9 -1.5
      vertex -8 9 5
    endloop
  endfacet
  facet normal -2.71926e-32 1 2.22045e-16
    outer loop
      vertex -8 9 5
      vertex -12 9 -1.5
      vertex -12 9 5
    endloop
  endfacet
  facet normal 0.910366 -0.413803 1.9605e-17
    outer loop
      vertex -12 9 -1.5
      vertex -8 17.8 -1.5
      vertex -8 17.8 10
    endloop
  endfacet
  facet normal 0.910366 -0.413803 1.9605e-17
    outer loop
      vertex -10.6364 12 5
      vertex -12 9 -1.5
      vertex -8 17.8 10
    endloop
  endfacet
  facet normal 0.910366 -0.413803 1.9605e-17
    outer loop
      vertex -10.6364 12 10
      vertex -10.6364 12 5
      vertex -8 17.8 10
    endloop
  endfacet
  facet normal 0.910366 -0.413803 1.9605e-17
    outer loop
      vertex -10.6364 12 5
      vertex -12 9 5
      vertex -12 9 -1.5
    endloop
  endfacet
  facet normal 1 0 0
    outer loop
      vertex -8 20 -1.5
      vertex -8 20 10
      vertex -8 17.8 10
    endloop
  endfacet
  facet normal 1 0 0
    outer loop
      vertex -8 17.8 -1.5
      vertex -8 20 -1.5
      vertex -8 17.8 10
    endloop
  endfacet
  facet normal 0 0 1
    outer loop
      vertex -23.5 20 10
      vertex -23.5 12 10
      vertex -10.6364 12 10
    endloop
  endfacet
  facet normal 0 0 1
    outer loop
      vertex -8 20 10
      vertex -23.5 20 10
      vertex -8 17.8 10
    endloop
  endfacet
  facet normal 0 0 1
    outer loop
      vertex -8 17.8 10
      vertex -23.5 20 10
      vertex -10.6364 12 10
    endloop
  endfacet
  facet normal -1 0 0
    outer loop
      vertex -23.5 3 1.5
      vertex -23.5 3 10
      vertex -23.5 6 5
    endloop
  endfacet
  facet normal -1 0 0
    outer loop
      vertex -23.5 3 1.5
      vertex -23.5 6 5
      vertex -23.5 20 1.5
    endloop
  endfacet
  facet normal -1 0 0
    outer loop
      vertex -23.5 12 10
      vertex -23.5 20 1.5
      vertex -23.5 12 5
    endloop
  endfacet
  facet normal -1 0 0
    outer loop
      vertex -23.5 6 5
      vertex -23.5 12 5
      vertex -23.5 20 1.5
    endloop
  endfacet
  facet normal -1 0 0
    outer loop
      vertex -23.5 20 1.5
      vertex -23.5 12 10
      vertex -23.5 20 10
    endloop
  endfacet
  facet normal -1 0 0
    outer loop
      vertex -23.5 6 5
      vertex -23.5 3 10
      vertex -23.5 6 10
    endloop
  endfacet
  facet normal 0 -1 0
    outer loop
      vertex -23.5 3 10
      vertex -23.5 3 1.5
      vertex 23.5 3 1.5
    endloop
  endfacet
  facet normal 0 -1 0
    outer loop
      vertex 23.5 3 10
      vertex -23.5 3 10
      vertex 23.5 3 1.5
    endloop
  endfacet
  facet normal 1 0 0
    outer loop
      vertex 23.5 12 5
      vertex 23.5 3 1.5
      vertex 23.5 20 1.5
    endloop
  endfacet
  facet normal 1 0 0
    outer loop
      vertex 23.5 6 5
      vertex 23.5 6 10
      vertex 23.5 3 10
    endloop
  endfacet
  facet normal 1 0 0
    outer loop
      vertex 23.5 20 10
      vertex 23.5 12 10
      vertex 23.5 20 1.5
    endloop
  endfacet
  facet normal 1 0 0
    outer loop
      vertex 23.5 6 5
      vertex 23.5 3 1.5
      vertex 23.5 12 5
    endloop
  endfacet
  facet normal 1 0 0
    outer loop
      vertex 23.5 3 10
      vertex 23.5 3 1.5
      vertex 23.5 6 5
    endloop
  endfacet
  facet normal 1 0 0
    outer loop
      vertex 23.5 12 10
      vertex 23.5 12 5
      vertex 23.5 20 1.5
    endloop
  endfacet
  facet normal 0 0 1
    outer loop
      vertex 8 20 10
      vertex 8 17.8 10
      vertex 10.6364 12 10
    endloop
  endfacet
  facet normal 0 0 1
    outer loop
      vertex 23.5 20 10
      vertex 8 20 10
      vertex 23.5 12 10
    endloop
  endfacet
  facet normal 0 0 1
    outer loop
      vertex 23.5 12 10
      vertex 8 20 10
      vertex 10.6364 12 10
    endloop
  endfacet
  facet normal 0 -1 0
    outer loop
      vertex 23.5 12 5
      vertex 23.5 12 10
      vertex 10.6364 12 10
    endloop
  endfacet
  facet normal 0 -1 0
    outer loop
      vertex 10.6364 12 5
      vertex 23.5 12 5
      vertex 10.6364 12 10
    endloop
  endfacet
  facet normal 0 0 1
    outer loop
      vertex 23.5 6 5
      vertex 23.5 12 5
      vertex 10.6364 12 5
    endloop
  endfacet
  facet normal 0 0 1
    outer loop
      vertex 8 9 5
      vertex 23.5 6 5
      vertex 12 9 5
    endloop
  endfacet
  facet normal 0 0 1
    outer loop
      vertex 12 9 5
      vertex 23.5 6 5
      vertex 10.6364 12 5
    endloop
  endfacet
  facet normal 0 0 1
    outer loop
      vertex -8 9 5
      vertex 23.5 6 5
      vertex 8 9 5
    endloop
  endfacet
  facet normal 0 0 1
    outer loop
      vertex -12 9 5
      vertex 23.5 6 5
      vertex -8 9 5
    endloop
  endfacet
  facet normal 0 0 1
    outer loop
      vertex -23.5 6 5
      vertex 23.5 6 5
      vertex -12 9 5
    endloop
  endfacet
  facet normal 0 0 1
    outer loop
      vertex -23.5 12 5
      vertex -12 9 5
      vertex -10.6364 12 5
    endloop
  endfacet
  facet normal 0 0 1
    outer loop
      vertex -23.5 6 5
      vertex -12 9 5
      vertex -23.5 12 5
    endloop
  endfacet
  facet normal 0 -1 0
    outer loop
      vertex -10.6364 12 5
      vertex -10.6364 12 10
      vertex -23.5 12 10
    endloop
  endfacet
  facet normal 0 -1 0
    outer loop
      vertex -23.5 12 5
      vertex -10.6364 12 5
      vertex -23.5 12 10
    endloop
  endfacet
  facet normal 0 1 0
    outer loop
      vertex 23.5 6 10
      vertex 23.5 6 5
      vertex -23.5 6 10
    endloop
  endfacet
  facet normal 0 1 0
    outer loop
      vertex -23.5 6 10
      vertex 23.5 6 5
      vertex -23.5 6 5
    endloop
  endfacet
  facet normal 0 0 1
    outer loop
      vertex -23.5 6 10
      vertex -23.5 3 10
      vertex 23.5 3 10
    endloop
  endfacet
  facet normal 0 0 1
    outer loop
      vertex 23.5 6 10
      vertex -23.5 6 10
      vertex 23.5 3 10
    endloop
  endfacet
endsolid OpenSCAD_Model
